<svg xmlns="http://www.w3.org/2000/svg" viewBox="0 0 100 100">
  <defs>
    <linearGradient id="sil" x1="0" y1="0" x2="1" y2="0">
      <stop offset="0" stop-color="#D9D9D9"/>
      <stop offset="1" stop-color="#8C8C8C"/>
    </linearGradient>
  </defs>
  <rect width="100" height="100" rx="23" fill="#000000"/>
  <rect x="1" y="1" width="98" height="98" rx="22" fill="none" stroke="#2a2a2a" stroke-width="2"/>
  <rect x="13" y="19" width="74" height="62" rx="9" fill="none" stroke="#8C8C8C" stroke-width="3.5"/>
  <circle cx="24" cy="28.5" r="2.5" fill="#8C8C8C"/>
  <circle cx="32.5" cy="28.5" r="2.5" fill="#8C8C8C"/>
  <g transform="translate(16.99 68.16) scale(0.042316 -0.042316)">
    <path transform="translate(0 0)" d="M324 -138Q271 -138 246.5 -111.5Q222 -85 222 -45L222 10Q222 36 227 56Q232 76 240.5 91.5Q249 107 259 119Q269 131 278 142Q295 162 301.5 176.5Q308 191 308 207Q308 272 183 272L100 272L100 350L183 350Q308 350 308 415Q308 431 301.5 445.5Q295 460 278 480Q269 491 259 503.5Q249 516 241 531Q233 546 227.5 566Q222 586 222 612L222 667Q222 707 246.5 733.5Q271 760 324 760L500 760L500 682L312 682L312 618Q312 598 315 583.5Q318 569 323.5 557Q329 545 336.5 535Q344 525 352 515Q369 494 384 470Q399 446 399 414Q399 372 369.5 346.5Q340 321 286 314L286 308Q340 301 369.5 275.5Q399 250 399 208Q399 176 384 152Q369 128 352 107Q344 97 336.5 87Q329 77 323.5 65Q318 53 315 38.5Q312 24 312 4L312 -60L500 -60L500 -138Z" fill="url(#sil)"/>
    <path transform="translate(480 0)" d="M75 0L25 698L123 698L148 292L159 113L167 113L246 529L357 529L436 113L444 113L455 292L481 698L575 698L525 0L375 0L304 404L296 404L225 0Z" fill="#ffffff"/>
    <path transform="translate(960 0)" d="M276 760Q329 760 353.5 733.5Q378 707 378 667L378 612Q378 586 372.5 566Q367 546 359 531Q351 516 341 503.5Q331 491 322 480Q305 460 298.5 445.5Q292 431 292 415Q292 350 417 350L500 350L500 272L417 272Q292 272 292 207Q292 191 298.5 176.5Q305 162 322 142Q331 130 341 118Q351 106 359.5 90.5Q368 75 373 55.5Q378 36 378 10L378 -45Q378 -85 353.5 -111.5Q329 -138 276 -138L100 -138L100 -60L288 -60L288 4Q288 44 276 65.5Q264 87 248 107Q231 128 216 152Q201 176 201 208Q201 250 230.5 275.5Q260 301 314 308L314 314Q260 321 230.5 346.5Q201 372 201 414Q201 446 216 470Q231 494 248 515Q264 535 276 556.5Q288 578 288 618L288 682L100 682L100 760Z" fill="url(#sil)"/>
  </g>
</svg>